<svg width="35" height="34" viewBox="0 0 35 34" fill="none" xmlns="http://www.w3.org/2000/svg">
<path d="M31.6835 1.12153L1.74065 18.3932C1.48507 18.5335 1.27417 18.7429 1.13209 18.9974C0.990012 19.2519 0.922503 19.5413 0.937295 19.8325C0.952087 20.1236 1.04858 20.4047 1.21573 20.6435C1.38288 20.8823 1.61392 21.0692 1.88239 21.1829L8.74976 24.0646L27.3108 7.70943C27.3839 7.64595 27.4782 7.61218 27.5751 7.61476C27.6719 7.61734 27.7642 7.65609 27.8339 7.72338C27.9036 7.79067 27.9455 7.88161 27.9514 7.97828C27.9574 8.07495 27.9269 8.17033 27.8659 8.24563L12.3027 27.2039V32.4005C12.2955 32.7225 12.3888 33.0388 12.5697 33.3053C12.7506 33.5719 13.0101 33.7754 13.312 33.8877C13.614 33.9999 13.9434 34.0153 14.2545 33.9316C14.5656 33.848 14.8429 33.6695 15.0478 33.4209L19.1512 28.4322L27.1998 31.8029C27.4158 31.892 27.6492 31.9313 27.8826 31.9178C28.1159 31.9043 28.3432 31.8383 28.5475 31.7248C28.7519 31.6113 28.9279 31.4532 29.0627 31.2622C29.1975 31.0713 29.2874 30.8524 29.3259 30.6218L33.9821 2.72304C34.0308 2.43363 33.9962 2.13635 33.8825 1.86579C33.7688 1.59523 33.5806 1.36252 33.3398 1.19474C33.099 1.02696 32.8155 0.931008 32.5223 0.918047C32.2291 0.905086 31.9382 0.97565 31.6835 1.12153V1.12153Z" fill="#6FABFF"/>
</svg>
