<svg width="34" height="31" viewBox="0 0 34 31" fill="none" xmlns="http://www.w3.org/2000/svg">
<path d="M30.4724 18.1492L33.1872 6.20356C33.233 6.00184 33.2329 5.79237 33.1867 5.59072C33.1406 5.38906 33.0496 5.20038 32.9206 5.03868C32.7916 4.87698 32.6278 4.7464 32.4414 4.65665C32.255 4.56689 32.0508 4.52026 31.8439 4.52021H9.28643L8.76678 1.95188C8.70328 1.64079 8.53429 1.36118 8.28839 1.16033C8.04249 0.959476 7.73477 0.849711 7.41727 0.849594H1.53106C1.16563 0.849594 0.815162 0.994761 0.556764 1.25316C0.298365 1.51156 0.153198 1.86202 0.153198 2.22745V3.1455C0.153198 3.51093 0.298365 3.86139 0.556764 4.11979C0.815162 4.37819 1.16563 4.52336 1.53106 4.52336H5.54338L9.57617 24.2401C8.9917 24.5753 8.52726 25.0855 8.24844 25.6989C7.96962 26.3122 7.89051 26.9977 8.02227 27.6584C8.15404 28.3192 8.49002 28.9218 8.98278 29.3813C9.47555 29.8408 10.1002 30.1339 10.7685 30.2192C11.4368 30.3045 12.1151 30.1778 12.7075 29.8568C13.2999 29.5359 13.7765 29.0369 14.07 28.4305C14.3636 27.824 14.4592 27.1407 14.3434 26.477C14.2276 25.8132 13.9063 25.2027 13.4247 24.7314H25.4601C24.9725 25.2094 24.6498 25.8302 24.5387 26.504C24.4277 27.1777 24.5341 27.8693 24.8425 28.4785C25.151 29.0877 25.6454 29.5828 26.2542 29.892C26.8629 30.2013 27.5544 30.3087 28.2283 30.1985C28.9021 30.0884 29.5234 29.7665 30.0021 29.2795C30.4807 28.7925 30.7918 28.1658 30.8902 27.4901C30.9887 26.8144 30.8694 26.1249 30.5496 25.5216C30.2299 24.9183 29.7263 24.4325 29.1118 24.1346L29.4268 22.741C29.4726 22.5393 29.4725 22.3298 29.4264 22.1282C29.3802 21.9265 29.2892 21.7378 29.1602 21.5761C29.0312 21.4144 28.8674 21.2839 28.681 21.1941C28.4946 21.1043 28.2904 21.0577 28.0836 21.0577H12.6752L12.2988 19.22H29.1276C29.4399 19.2203 29.7431 19.1146 29.9874 18.92C30.2318 18.7255 30.4028 18.4537 30.4724 18.1492V18.1492Z" fill="#FFB568"/>
</svg>
